<svg viewBox="0 0 24 24" fill="currentColor" xmlns="http://www.w3.org/2000/svg">
  <path d="M5.042 15.165a2.528 2.528 0 01-2.52 2.523A2.528 2.528 0 010 15.165a2.527 2.527 0 012.522-2.52h2.52v2.52zm1.271 0a2.527 2.527 0 012.521-2.52 2.527 2.527 0 012.521 2.52v6.313A2.528 2.528 0 018.834 24a2.528 2.528 0 01-2.521-2.522v-6.313zM8.834 5.042a2.528 2.528 0 01-2.521-2.52A2.528 2.528 0 018.834 0a2.528 2.528 0 012.521 2.522v2.52H8.834zm0 1.271a2.528 2.528 0 012.521 2.521 2.528 2.528 0 01-2.521 2.521H2.522A2.528 2.528 0 010 8.834a2.528 2.528 0 012.522-2.521h6.312zm10.124 2.521a2.528 2.528 0 012.522-2.521A2.528 2.528 0 0124 8.834a2.528 2.528 0 01-2.52 2.521h-2.522V8.834zm-1.271 0a2.528 2.528 0 01-2.521 2.521 2.528 2.528 0 01-2.521-2.521V2.522A2.528 2.528 0 0115.166 0a2.528 2.528 0 012.521 2.522v6.312zm-2.521 10.124a2.528 2.528 0 012.521 2.522A2.528 2.528 0 0115.166 24a2.528 2.528 0 01-2.521-2.52v-2.522h2.521zm0-1.271a2.528 2.528 0 01-2.521-2.521 2.528 2.528 0 012.521-2.521h6.312A2.528 2.528 0 0124 15.166a2.528 2.528 0 01-2.52 2.521h-6.312z"/>
</svg>
