<svg viewBox="0 0 24 24" fill="currentColor" xmlns="http://www.w3.org/2000/svg">
  <path d="M20.625 8.073h-5.27V6.75c0-.69.56-1.25 1.25-1.25h2.77c.69 0 1.25.56 1.25 1.25v1.323zM24 10.5v5.25c0 1.795-1.455 3.25-3.25 3.25h-.5c-1.795 0-3.25-1.455-3.25-3.25V10.5c0-.414.336-.75.75-.75h5.5c.414 0 .75.336.75.75zm-6.5-5.25a2.5 2.5 0 11-5 0 2.5 2.5 0 015 0zM14 10.5v7.25c0 1.795-1.455 3.25-3.25 3.25h-4.5C4.455 21 3 19.545 3 17.75V10.5c0-.414.336-.75.75-.75h9.5c.414 0 .75.336.75.75zM10.5 5.25a3 3 0 11-6 0 3 3 0 016 0z"/>
</svg>
